<svg xmlns="http://www.w3.org/2000/svg" width="20.53" height="20.087" viewBox="0 0 20.53 20.087">
  <path id="user" d="M1514.83,125.627a5.276,5.276,0,0,0,1.567-3.768v-2.62a5.134,5.134,0,1,0-10.265,0v2.62a5.278,5.278,0,0,0,1.567,3.767c-3.911.622-6.7,2.235-6.7,4.114v1.726a2.593,2.593,0,0,0,2.566,2.62h15.4a2.593,2.593,0,0,0,2.566-2.62v-1.719C1521.53,127.868,1518.742,126.25,1514.83,125.627Zm-6.987-3.768v-2.62a3.422,3.422,0,1,1,6.843,0v2.62a3.422,3.422,0,1,1-6.843,0Zm11.976,9.607a.866.866,0,0,1-.855.874h-15.4a.866.866,0,0,1-.855-.874V129.74c0-.2.493-.861,1.957-1.488a19.417,19.417,0,0,1,13.193,0c1.465.629,1.958,1.287,1.958,1.492Z" transform="translate(-1501 -113.999)" fill="#444"/>
</svg>
